<?xml version="1.0" encoding="utf-8"?>
<!-- Generator: Adobe Illustrator 21.0.0, SVG Export Plug-In . SVG Version: 6.00 Build 0)  -->
<svg version="1.1" id="Layer_1" xmlns="http://www.w3.org/2000/svg" xmlns:xlink="http://www.w3.org/1999/xlink" x="0px" y="0px"
	 viewBox="0 0 258.2 108" style="enable-background:new 0 0 258.2 108;" xml:space="preserve">
<style type="text/css">
	.st0{fill:#1B3A66;}
	.st1{fill:#EE2E24;}
	.st2{fill:#FFCB05;}
	.st3{fill:#0B7FC3;}
	.st4{fill:#8DC63F;}
</style>
<g>
	<path class="st0" d="M121.4,53.8c-1.9,1.3-4.3,2-6.9,2c-1.8,0-3.5-0.3-5-1v5.9c-1.9-2.3-4.4-3.8-7.3-3.8c-9.3,0-12.3,10-12.3,19.6
		c0,9.2,3.1,19.3,11.9,19.3c3.8,0,6.4-1.6,8.2-5.7h0.1v5h11.3V55h0V53.8z M108.8,84.1c-0.7,1.2-1.4,1.9-2.6,1.9
		c-3.7,0-3.9-5.9-3.9-9.2c0-2,0.2-4.9,0.6-7c0.4-2.3,1.3-4,3.4-4c1,0,2,0.5,2.6,1.5c0.8,1.2,0.7,2.9,0.7,4.4v7.5
		C109.5,81.2,109.6,82.5,108.8,84.1z"/>
	<path class="st0" d="M155.2,86.8V73.7c0-5.3,0.5-10.2-3.5-13.6c-0.5-0.4-1.1-0.8-1.6-1.1c-2.1,1.6-4.8,2.5-7.9,2.5
		c-5.3,0-8.7-0.7-10.6-2.2l-0.4-0.3v-0.1c-3.2,1.7-5.7,4.7-6.7,9.7l10.9,1.2c0.4-3.1,2.3-4.2,4.7-4.2c2.9,0,3.6,1.3,3.6,4.7v0.3
		c-4,0.3-8.2,0.9-12.1,2.3c-4.3,1.6-8.1,5.6-8.1,11.5c0,7.5,5,11.3,10.7,11.3c4.2,0,7.6-1.6,10-5.9c0,1.8,0.1,3.5,0.4,5.2h11.5
		C155.3,92.4,155.2,89.6,155.2,86.8z M143.7,78.2c0,4.1-0.1,8.7-4.6,8.7c-1.9,0-3.1-1-3.1-3.4c0-4.5,4.8-5.6,7.7-6V78.2z"/>
	<path class="st0" d="M19.9,56.8c-4.1,0-7.5,1.5-8.7,6.1h-0.1v-5.3H0v49.2h11.9V91c1.9,3.3,4.7,4.8,7.9,4.8c4.3,0,7.5-2.8,9.4-7.3
		c1.6-3.7,2.2-8.4,2.2-12.6C31.4,67.1,28.5,56.8,19.9,56.8z M18.4,83.4c-0.5,2-1.6,3.1-3.2,3.1c-2.9,0-3.2-3.4-3.2-6.1v-8.9
		c0-1.5-0.1-2.6,0.7-3.8c0.7-1,1.6-1.5,2.6-1.5c3.8,0,3.7,7.4,3.7,10.5C19,78.7,18.9,81.4,18.4,83.4z"/>
	<path class="st0" d="M43.6,65.3h-0.1v-7.7H33.3V95h11.9V78.7c0-2.2,0-4.6,0.8-6.4c1-2.1,2.9-2.6,4.9-2.6c0.8,0,1.6,0.1,2.3,0.4V57
		l-1.6-0.1C46.8,56.4,44.6,60,43.6,65.3z"/>
	<path class="st0" d="M255.7,60c-1.8-2.3-4.6-3.2-7.2-3.2c-4,0-7.1,1.6-9.2,5.8c-1.9-4-4.9-5.8-8.7-5.8c-3.6,0-6.7,2-8.4,5.8h-0.1
		v-5.1h-10.8V95h11.7V72.5c0-2.8,0.2-5.3,3.1-5.3c2.6,0,2.7,3,2.7,5.3V95h11.7V74.2c0-3-0.1-6.8,3.2-6.8c2.8,0,2.5,2.7,2.5,5.1V95
		h11.7V70.5C257.9,66.5,257.9,62.8,255.7,60z"/>
	<path class="st0" d="M191.9,56.8c-4.4,0-9.1,1.8-12.2,5.8c-2.9,3.6-4.5,9.1-4.4,14.1c-0.1,5.3,1.7,10.5,5,14.1
		c3.5,3.7,7.9,4.9,12.4,4.9c7.3,0,13.9-4.2,15.7-13.3l-11.2-0.9c-0.5,3.2-2,4.5-4.7,4.5c-3.6,0-4.7-2.9-4.7-7h20.6v-2
		C208.4,64.9,202.1,56.8,191.9,56.8z M187.7,71.8c0-3.4,1.1-6.4,4.3-6.4c3.4,0,4.3,2.8,4.3,6.4H187.7z"/>
	<path class="st0" d="M73.2,67.6c1.4,2.2,1.4,6.1,1.4,8.5c0,10-2,10.8-4.1,10.8c-2.2,0-4.1-0.7-4.1-10.8c0-2.5,0-6.4,1.4-8.5h-0.1
		V65v-8c-8.2,1.4-14.1,8.7-14.1,19.5c0,11.4,7.5,19.1,16.9,19.1c9.4,0,16.9-7.8,16.9-19.1c0-3.4-0.6-6.4-1.6-9.1H73.2z"/>
	<path class="st0" d="M172.7,57.6h-11.9v34.4c0,3.1-0.2,5.4-3.4,5.4c-0.8,0-1.7-0.3-2.5-0.7v10.6c2.5,0.5,5.9,0.7,7.3,0.7
		c3.3,0,6.6-1.2,8.7-4.5c2-3.3,1.9-7.8,1.9-11.7V57.6z"/>
	<g>
		<polygon class="st1" points="32,15.1 21.7,15.1 14.5,25.2 11.9,29.3 11.9,2.2 0,2.2 0,52.5 11.9,52.5 11.9,42.2 14.9,37.5 
			20.7,52.5 33.1,52.5 22.8,28 		"/>
		<path class="st1" d="M52.6,15.1v21.5c0,1.4-0.1,2.7-0.6,4c-0.5,1.3-1.7,2.1-2.9,2.1c-2.7,0-2.6-2.6-2.6-5V15.1H34.6v25.9
			c0,3.5,0.2,6.8,2.4,9.5c1.9,2.1,4.3,2.9,6.8,2.9c4,0,8.1-2.1,9.3-6.9h0.1v6.2h11.2V15.1H52.6z"/>
	</g>
	<g>
		<path class="st2" d="M123.2,15.1v21.5c0,1.4-0.1,2.7-0.6,4c-0.5,1.3-1.7,2.1-2.9,2.1c-2.7,0-2.6-2.6-2.6-5V15.1h-11.9v25.9
			c0,3.5,0.2,6.8,2.4,9.5c1.9,2.1,4.3,2.9,6.8,2.9c4,0,8.1-2.1,9.3-6.9h0.1v6.2h7.2V45h3.3c0.3,0,0.5,0,0.7,0V15.1H123.2z"/>
		<path class="st2" d="M90.1,14.3c-4.1,0-7.5,1.5-8.7,6.1h-0.1v-5.3H70.2v50h11.9V48.5c1.9,3.3,4.7,4.8,7.9,4.8
			c4.3,0,7.5-2.8,9.4-7.3c1.6-3.7,2.2-8.4,2.2-12.6C101.6,24.6,98.7,14.3,90.1,14.3z M88.6,40.9c-0.5,2-1.6,3.1-3.2,3.1
			c-2.9,0-3.2-3.4-3.2-6.1V29c0-1.5-0.1-2.6,0.7-3.8c0.7-1,1.6-1.5,2.6-1.5c3.8,0,3.7,7.4,3.7,10.5C89.2,36.2,89.1,38.9,88.6,40.9z"
			/>
	</g>
	<path class="st3" d="M231.1,14.3c-4,0-7.1,1.6-9.2,5.8c-1.9-4-4.9-5.8-8.7-5.8c-3.6,0-6.7,2-8.4,5.8h-0.1v-5.1H194v37.4h11.7V30
		c0-2.8,0.2-5.3,3.1-5.3c2.6,0,2.7,3,2.7,5.3v22.5h11.7V31.7c0-3-0.1-6.8,3.2-6.8c2.8,0,2.5,2.7,2.5,5.1v22.5h11.7V28
		c0-4,0-7.6-2.2-10.4C236.5,15.3,233.7,14.3,231.1,14.3z"/>
	<path class="st3" d="M254.7,19.8c0-1.9-2.1-1.9-2.4-1.9H249v6.4h1.9V22h0.9l1,2.3h1.9l-1.2-2.8C253.9,21.4,254.7,21,254.7,19.8z
		 M251.6,20.7h-0.7v-1.6h0.8c0.8,0,1.1,0.3,1.1,0.7C252.8,20.5,252.1,20.7,251.6,20.7z"/>
	<path class="st3" d="M251.7,14.6c-3.6,0-6.5,2.9-6.5,6.5c0,3.6,2.9,6.5,6.5,6.5c3.6,0,6.5-2.9,6.5-6.5
		C258.2,17.5,255.3,14.6,251.7,14.6z M251.7,25.8c-2.6,0-4.7-2.1-4.7-4.7c0-2.6,2.1-4.7,4.7-4.7c2.6,0,4.7,2.1,4.7,4.7
		C256.4,23.7,254.3,25.8,251.7,25.8z"/>
	<path class="st4" d="M190.2,34.7c0-12.3-6.3-20.4-16.5-20.4c-4.4,0-9.1,1.8-12.2,5.8c-2.9,3.6-4.5,9.1-4.4,14.1
		c-0.1,5.3,1.7,10.5,5,14.1c3.5,3.7,7.9,4.9,12.4,4.9c7.3,0,13.9-4.2,15.7-13.3L179,39.1c-0.5,3.2-2,4.5-4.7,4.5
		c-3.6,0-4.7-2.9-4.7-7h20.6V34.7z M169.6,29.3c0-3.4,1.1-6.4,4.3-6.4c3.4,0,4.3,2.8,4.3,6.4H169.6z"/>
	<circle class="st4" cx="146.7" cy="6.5" r="6.5"/>
	<path class="st4" d="M152.6,15.1h-11.9v27.7c0,3.1-0.2,5.4-3.4,5.4c-0.8,0-2.2-0.2-3.3-0.5v10.3c2.7,0.8,6.6,0.8,8,0.8
		c3.3,0,6.6-1.2,8.7-4.5c2-3.3,1.9-7.8,1.9-11.7V15.1z"/>
</g>
</svg>
